<?xml version="1.0" encoding="UTF-8"?>
<svg width="53px" height="53px" viewBox="0 0 53 53" version="1.1" xmlns="http://www.w3.org/2000/svg" xmlns:xlink="http://www.w3.org/1999/xlink">
    <!-- Generator: Sketch 64 (93537) - https://sketch.com -->
    <title>Shape</title>
    <desc>Created with Sketch.</desc>
    <g id="Symbols" stroke="none" stroke-width="1" fill="none" fill-rule="evenodd">
        <g id="Service_Assets" transform="translate(-947.000000, -2041.000000)">
            <rect id="Background" x="0" y="0" width="1440" height="5116"></rect>
        </g>
        <g id="-Badges-&amp;-Logos-/-Company-Logo" fill="#FFFFFF">
            <g id="cr-logo-type">
                <path d="M38.2280236,28.0870787 C38.410811,28.3086772 38.5848346,28.555315 38.7471732,28.8299134 C39.7337244,30.4967008 40.5875669,33.0052283 41.2264882,33.9642362 C41.7009843,34.6757717 42.4642677,35.1177165 42.9996929,35.2792205 C44.3280315,35.680685 45.5078031,35.6794331 46.4855906,35.1990945 C47.4758976,34.7120787 48.2220709,33.7584961 48.7558268,32.434748 C49.6242756,30.2805276 49.9009606,27.2453386 49.5216142,23.4184882 C49.1230709,19.399252 46.9734409,15.3520551 44.4519764,12.0610472 C41.8871102,8.71286614 37.5244173,5.52952756 33.1141496,4.28089764 C26.9703228,2.54107874 21.860622,3.37280315 17.2926063,5.26327559 C11.7897874,7.54018898 7.89616535,12.1587008 5.9176378,15.8453307 C4.04677953,19.3303937 3.32564567,23.6755591 3.32564567,27.2624488 C3.32564567,30.7157953 4.32972441,34.2989291 5.92055906,37.2923858 C7.52307874,40.307126 10.1885197,43.2642756 12.9315827,45.2741024 C15.6688031,47.2793386 19.1380079,48.7424724 22.3630787,49.3388268 C25.5814724,49.9339291 29.0727953,49.7106614 32.2607244,48.8459685 C35.4837087,47.9720945 39.0205197,46.1354567 41.5999921,44.0922441 L43.6273465,46.651685 C40.7240315,48.9507165 36.741937,51.0139606 33.1154016,51.9971732 C29.4609055,52.988315 25.4583622,53.2311969 21.7696457,52.5492913 C18.0876063,51.8686378 14.1272126,50.1972598 11.0018819,47.9078268 C7.88281102,45.6221496 4.85972441,42.252685 3.03769291,38.8247953 C1.20397638,35.3752047 0.060511811,31.2420394 0.060511811,27.2624488 C0.060511811,23.1877087 0.915606299,18.260378 3.04061417,14.3012362 C5.29916535,10.0937874 9.76368504,4.84511811 16.0439764,2.24644882 C21.2296299,0.100574803 27.0295827,-0.835480315 34.0034646,1.13929134 C39.0735197,2.57529921 44.094748,6.22645669 47.0439685,10.0754252 C49.927252,13.8392598 52.3147559,18.4995039 52.7704724,23.096315 C53.9673543,35.1644567 48.9611496,40.492 42.0552913,38.4045512 C40.9844409,38.081126 39.457874,37.1976535 38.5097165,35.7745827 C37.8511811,34.7863622 36.9543543,32.2106457 35.9377559,30.4929449 C35.3409843,29.4855276 34.3552677,29.4079055 33.6620945,29.3402992 L33.5014252,29.3256929 C32.6830551,29.3181811 31.8751181,29.256 31.1861181,29.1808819 C31.1852835,30.0101024 30.8247165,31.0033307 29.9429134,31.9690157 C28.9960079,33.0056457 27.3667795,34.0965276 25.0364488,34.9002913 C22.7682992,35.6823543 19.9342598,36.1998346 17.4849921,35.577189 C16.3669843,35.2929921 14.8521024,34.6841181 13.5738425,33.2689764 C12.3757087,31.9423071 11.3436693,29.8715512 11.2063701,26.5446535 C11.0795039,23.4752441 12.9198976,18.5299685 17.1502992,17.4929213 C19.4889764,16.9195197 21.572252,17.0810236 24.3687323,17.7637638 L23.5945984,20.9354173 C21.3982283,20.3995748 19.7644094,20.2134488 17.9277717,20.6637402 C16.6916614,20.9667165 15.8565984,21.890252 15.3078189,22.9252126 C14.693937,24.0837008 14.4268504,25.4061969 14.4685827,26.4098583 C14.563315,28.7034646 15.170937,30.1661811 15.9968189,31.0805354 C16.7429921,31.9068346 17.6368976,32.2469528 18.2895906,32.4126299 C20.1354094,32.8821181 22.2625039,32.4034488 23.9718583,31.8137717 C25.3961811,31.3225827 26.4824724,30.7195512 27.2040236,30.0864724 C27.4310472,29.8869921 27.6171732,29.6891811 27.7540551,29.4922047 C27.8362677,29.3745197 27.9214016,29.2802047 27.9214016,29.1779606 L27.9214016,17.2583858 L29.3853701,17.1064803 C29.3853701,17.1064803 32.1171654,16.8243701 34.3515118,16.9153465 C35.5074961,16.9625039 36.5462126,17.1336063 37.1747008,17.4090394 C38.2726772,17.8906299 39.1252677,18.524126 39.7174488,19.438063 C40.2833386,20.3111024 40.6305512,21.4704252 40.5888189,23.1246929 C40.5358189,25.2250787 39.6231339,27.002874 38.2280236,28.0870787 Z M34.0351811,26.0968661 C34.5697717,26.0726614 35.084748,26.0050551 35.5291969,25.8723465 C36.6255039,25.544748 37.2907165,24.3925197 37.324937,23.042063 C37.3453858,22.2295354 37.2556614,21.6427795 36.9777244,21.2137717 C36.7264961,20.8260787 36.3292047,20.6036457 35.8634724,20.3991575 C35.4991496,20.2393228 34.8877717,20.2051024 34.2183858,20.1775591 C33.1971969,20.1362441 32.0608268,20.181315 31.1861181,20.2364016 L31.1861181,25.8681732 C32.0069921,25.9399528 32.9872835,25.9942047 33.9784252,26.0906063 L34.0351811,26.0968661 Z" id="Shape"></path>
            </g>
        </g>
    </g>
</svg>